<!DOCTYPE svg PUBLIC "-//W3C//DTD SVG 1.1//EN" "http://www.w3.org/Graphics/SVG/1.1/DTD/svg11.dtd">
<!-- Uploaded to: SVG Repo, www.svgrepo.com, Transformed by: SVG Repo Mixer Tools -->
<svg fill="#5c5c5c" width="800px" height="800px" viewBox="0 0 24 24" xmlns="http://www.w3.org/2000/svg" stroke="#5c5c5c" stroke-width="0.00024000000000000003">
<g id="SVGRepo_bgCarrier" stroke-width="0"/>
<g id="SVGRepo_tracerCarrier" stroke-linecap="round" stroke-linejoin="round"/>
<g id="SVGRepo_iconCarrier">
<path d="M22,12H5V5A2,2,0,0,1,7,3H9a2,2,0,0,1,1.838,1.214A3.5,3.5,0,0,0,8.5,7.5V9a1,1,0,0,0,1,1h5a1,1,0,0,0,1-1V7.5a3.5,3.5,0,0,0-2.6-3.368A4,4,0,0,0,9,1H7A4,4,0,0,0,3,5v7H2a1,1,0,0,0,0,2H3v4a3,3,0,0,0,2,2.816V22a1,1,0,0,0,2,0V21H17v1a1,1,0,0,0,2,0V20.816A3,3,0,0,0,21,18V14h1a1,1,0,0,0,0-2ZM13.5,7.5V8h-3V7.5a1.5,1.5,0,0,1,3,0ZM19,18a1,1,0,0,1-1,1H6a1,1,0,0,1-1-1V14H19Z"/>
</g>
</svg>